<?xml version="1.0" encoding="utf-8"?>
<!-- Generator: Adobe Illustrator 26.0.3, SVG Export Plug-In . SVG Version: 6.00 Build 0)  -->
<svg version="1.1" id="Layer_1" xmlns="http://www.w3.org/2000/svg" xmlns:xlink="http://www.w3.org/1999/xlink" x="0px" y="0px"
	 viewBox="0 0 83 26" style="enable-background:new 0 0 83 26;" xml:space="preserve">
<path d="M3.38,2.64H0.88V1.15h6.79v1.49H5.15v7.41H3.38V2.64z"/>
<path d="M8.97,0.46h1.76v2.41l-0.08,1.26c0.54-0.5,1.2-0.98,2.11-0.98c1.45,0,2.07,1.01,2.07,2.7v4.19h-1.76V6.07
	c0-1.04-0.29-1.4-0.95-1.4c-0.55,0-0.9,0.26-1.39,0.76v4.62H8.97V0.46z"/>
<path d="M16.23,6.68c0-2.17,1.54-3.53,3.13-3.53c1.85,0,2.81,1.36,2.81,3.21c0,0.34-0.04,0.66-0.08,0.82h-4.14
	c0.14,1.1,0.86,1.68,1.86,1.68c0.55,0,1.03-0.17,1.51-0.47l0.6,1.08c-0.66,0.46-1.51,0.74-2.34,0.74
	C17.69,10.21,16.23,8.9,16.23,6.68z M20.65,6c0-0.9-0.41-1.48-1.27-1.48c-0.71,0-1.33,0.5-1.46,1.48H20.65z"/>
<path d="M26.49,1.15h2.91c1.97,0,3.48,0.7,3.48,2.8c0,2.03-1.52,2.94-3.43,2.94h-1.19v3.16h-1.77V1.15z M29.33,5.48
	c1.22,0,1.81-0.52,1.81-1.54c0-1.03-0.65-1.38-1.87-1.38h-1.01v2.92H29.33z"/>
<path d="M34.28,7.52v-4.2h1.76V7.3c0,1.03,0.29,1.4,0.94,1.4c0.55,0,0.91-0.24,1.37-0.84V3.32h1.76v6.73h-1.44l-0.13-0.96h-0.05
	c-0.58,0.68-1.22,1.13-2.14,1.13C34.9,10.21,34.28,9.2,34.28,7.52z"/>
<path d="M43.58,9.34h-0.05l-0.16,0.71h-1.38V0.46h1.76v2.41l-0.05,1.08c0.53-0.48,1.2-0.8,1.86-0.8c1.66,0,2.65,1.36,2.65,3.41
	c0,2.32-1.38,3.65-2.85,3.65C44.76,10.21,44.11,9.9,43.58,9.34z M46.41,6.6c0-1.29-0.41-1.99-1.33-1.99c-0.46,0-0.86,0.23-1.32,0.7
	v2.95c0.42,0.37,0.85,0.5,1.21,0.5C45.78,8.76,46.41,8.06,46.41,6.6z"/>
<path d="M49.72,8.16v-7.7h1.76v7.77c0,0.41,0.18,0.54,0.35,0.54c0.07,0,0.12,0,0.24-0.02l0.22,1.31c-0.2,0.08-0.49,0.16-0.91,0.16
	C50.15,10.21,49.72,9.41,49.72,8.16z"/>
<path d="M53.36,1.27c0-0.58,0.42-0.96,1.03-0.96c0.6,0,1.02,0.38,1.02,0.96c0,0.59-0.42,0.97-1.02,0.97
	C53.78,2.24,53.36,1.86,53.36,1.27z M53.5,3.32h1.76v6.73H53.5V3.32z"/>
<path d="M56.51,9.26l0.8-1.1c0.6,0.47,1.18,0.73,1.8,0.73c0.67,0,0.97-0.29,0.97-0.71c0-0.5-0.7-0.73-1.4-1.01
	c-0.85-0.32-1.8-0.84-1.8-1.97c0-1.2,0.97-2.05,2.51-2.05c0.97,0,1.73,0.41,2.28,0.83l-0.79,1.07c-0.48-0.35-0.95-0.58-1.44-0.58
	c-0.61,0-0.9,0.26-0.9,0.65c0,0.49,0.62,0.67,1.33,0.94c0.89,0.34,1.87,0.78,1.87,2.03c0,1.18-0.92,2.13-2.67,2.13
	C58.17,10.21,57.18,9.82,56.51,9.26z"/>
<path d="M63.09,0.46h1.76v2.41l-0.08,1.26c0.54-0.5,1.2-0.98,2.11-0.98c1.45,0,2.07,1.01,2.07,2.7v4.19h-1.76V6.07
	c0-1.04-0.29-1.4-0.95-1.4c-0.55,0-0.9,0.26-1.39,0.76v4.62h-1.76V0.46z"/>
<path d="M70.35,6.68c0-2.17,1.54-3.53,3.13-3.53c1.85,0,2.81,1.36,2.81,3.21c0,0.34-0.04,0.66-0.08,0.82h-4.14
	c0.14,1.1,0.86,1.68,1.86,1.68c0.55,0,1.03-0.17,1.51-0.47l0.6,1.08c-0.66,0.46-1.51,0.74-2.34,0.74
	C71.81,10.21,70.35,8.9,70.35,6.68z M74.77,6c0-0.9-0.41-1.48-1.27-1.48c-0.71,0-1.33,0.5-1.46,1.48H74.77z"/>
<path d="M77.74,3.32h1.44l0.13,1.19h0.04c0.49-0.88,1.21-1.36,1.91-1.36c0.37,0,0.59,0.06,0.79,0.14l-0.3,1.53
	c-0.24-0.07-0.43-0.11-0.71-0.11c-0.53,0-1.16,0.35-1.54,1.32v4.01h-1.76V3.32z"/>
<path d="M13.64,21.19l-2.66-5.64h1.88l0.89,2.17c0.25,0.66,0.49,1.29,0.77,1.97h0.05c0.28-0.68,0.54-1.31,0.79-1.97l0.89-2.17h1.85
	l-2.67,5.64v3.25h-1.77V21.19z"/>
<path d="M18.39,21.92v-4.2h1.76v3.98c0,1.03,0.29,1.4,0.94,1.4c0.55,0,0.91-0.24,1.37-0.84v-4.54h1.76v6.73h-1.44l-0.13-0.96H22.6
	c-0.58,0.68-1.22,1.13-2.13,1.13C19.01,24.61,18.39,23.61,18.39,21.92z"/>
<path d="M26.1,17.72h1.44l0.13,0.89h0.04c0.59-0.58,1.27-1.06,2.18-1.06c1.45,0,2.07,1.01,2.07,2.7v4.19h-1.76v-3.98
	c0-1.04-0.29-1.4-0.95-1.4c-0.55,0-0.9,0.26-1.39,0.76v4.62H26.1V17.72z"/>
<path d="M35.85,23.05l1.21-0.9c0.35,0.65,0.82,0.92,1.32,0.92c0.78,0,1.19-0.42,1.19-1.65v-5.88h1.78v6.03
	c0,1.67-0.84,3.04-2.75,3.04C37.3,24.61,36.44,24.09,35.85,23.05z"/>
<path d="M43.19,15.67c0-0.58,0.42-0.96,1.03-0.96c0.6,0,1.02,0.38,1.02,0.96c0,0.59-0.42,0.97-1.02,0.97
	C43.61,16.64,43.19,16.26,43.19,15.67z M43.34,17.72h1.76v6.73h-1.76V17.72z"/>
<path d="M46.36,17.72h1.76l0.73,3.31c0.13,0.66,0.22,1.3,0.34,1.97h0.05c0.13-0.67,0.25-1.32,0.42-1.97l0.82-3.31h1.56l0.84,3.31
	c0.16,0.66,0.28,1.3,0.42,1.97h0.06c0.12-0.67,0.22-1.31,0.34-1.97l0.73-3.31h1.63l-1.66,6.73h-2.07l-0.71-2.93
	c-0.14-0.64-0.25-1.25-0.38-1.96h-0.06c-0.13,0.71-0.23,1.33-0.37,1.96l-0.68,2.93H48.1L46.36,17.72z"/>
<path d="M56.82,21.08c0-2.23,1.55-3.53,3.23-3.53s3.23,1.3,3.23,3.53c0,2.23-1.55,3.53-3.23,3.53S56.82,23.32,56.82,21.08z
	 M61.48,21.08c0-1.26-0.52-2.09-1.43-2.09s-1.43,0.83-1.43,2.09c0,1.27,0.52,2.09,1.43,2.09S61.48,22.36,61.48,21.08z"/>
<path d="M64.76,17.72h1.44l0.13,0.89h0.04c0.59-0.58,1.27-1.06,2.18-1.06c1.45,0,2.07,1.01,2.07,2.7v4.19h-1.76v-3.98
	c0-1.04-0.29-1.4-0.95-1.4c-0.55,0-0.9,0.26-1.39,0.76v4.62h-1.76V17.72z"/>
</svg>
